<svg width="720" height="1460" viewBox="0 0 720 1460" fill="none" xmlns="http://www.w3.org/2000/svg">
  <rect width="720" height="1460" fill="#fff"/>
  <rect x="286" y="32" width="148" height="18" rx="9" fill="#18181b" opacity=".9"/>
  <text x="48" y="116" fill="#71717a" font-family="Instrument Sans, Arial, sans-serif" font-size="20" font-weight="600" letter-spacing="4">TODAY</text>
  <text x="48" y="164" fill="#18181b" font-family="Instrument Sans, Arial, sans-serif" font-size="42" font-weight="700" letter-spacing="-1.5">Good morning, Bob.</text>
  <circle cx="615" cy="128" r="33" fill="#f4f4f5"/>
  <path d="M600 128h30M615 113v30" stroke="#71717a" stroke-width="4" stroke-linecap="round"/>

  <rect x="34" y="222" width="652" height="272" rx="24" fill="#fff" stroke="#e4e4e7"/>
  <text x="64" y="282" fill="#18181b" font-family="Instrument Sans, Arial, sans-serif" font-size="28" font-weight="700">Calories</text>
  <rect x="190" y="251" width="126" height="30" rx="15" fill="#fff7ed"/>
  <text x="208" y="273" fill="#f97316" font-family="Instrument Sans, Arial, sans-serif" font-size="14" font-weight="800" letter-spacing="1.6">TRAINING</text>
  <text x="64" y="362" fill="#18181b" font-family="Instrument Sans, Arial, sans-serif" font-size="54" font-weight="800" letter-spacing="-2">1,462</text>
  <text x="226" y="362" fill="#a1a1aa" font-family="Instrument Sans, Arial, sans-serif" font-size="21" font-weight="500">kcal</text>
  <text x="533" y="354" fill="#a1a1aa" font-family="Instrument Sans, Arial, sans-serif" font-size="32" font-weight="700" text-anchor="end">538</text>
  <text x="533" y="384" fill="#c4c4cc" font-family="Instrument Sans, Arial, sans-serif" font-size="17" text-anchor="end">left</text>
  <rect x="64" y="412" width="592" height="5" rx="2.5" fill="#f4f4f5"/>
  <rect x="64" y="412" width="432" height="5" rx="2.5" fill="#18181b" opacity=".45"/>
  <text x="64" y="456" fill="#f59e0b" font-family="Instrument Sans, Arial, sans-serif" font-size="18" font-weight="800">P</text>
  <text x="89" y="456" fill="#18181b" font-family="Instrument Sans, Arial, sans-serif" font-size="22" font-weight="700">92</text>
  <text x="128" y="456" fill="#a1a1aa" font-family="Instrument Sans, Arial, sans-serif" font-size="17">/150g</text>
  <text x="238" y="456" fill="#38bdf8" font-family="Instrument Sans, Arial, sans-serif" font-size="18" font-weight="800">C</text>
  <text x="263" y="456" fill="#18181b" font-family="Instrument Sans, Arial, sans-serif" font-size="22" font-weight="700">161</text>
  <text x="316" y="456" fill="#a1a1aa" font-family="Instrument Sans, Arial, sans-serif" font-size="17">/220g</text>
  <text x="442" y="456" fill="#a78bfa" font-family="Instrument Sans, Arial, sans-serif" font-size="18" font-weight="800">F</text>
  <text x="465" y="456" fill="#18181b" font-family="Instrument Sans, Arial, sans-serif" font-size="22" font-weight="700">52</text>
  <text x="502" y="456" fill="#a1a1aa" font-family="Instrument Sans, Arial, sans-serif" font-size="17">/65g</text>

  <rect x="34" y="526" width="652" height="338" rx="24" fill="#fff" stroke="#e4e4e7"/>
  <text x="64" y="586" fill="#18181b" font-family="Instrument Sans, Arial, sans-serif" font-size="28" font-weight="700">Today workout</text>
  <text x="64" y="646" fill="#18181b" font-family="Instrument Sans, Arial, sans-serif" font-size="34" font-weight="700" letter-spacing="-.9">Lift day</text>
  <text x="558" y="646" fill="#71717a" font-family="Instrument Sans, Arial, sans-serif" font-size="20" text-anchor="end">45 min</text>
  <g font-family="Instrument Sans, Arial, sans-serif" font-size="20" font-weight="600">
    <rect x="64" y="682" width="592" height="48" rx="14" fill="#f4f4f5" opacity=".72"/><circle cx="91" cy="706" r="12" fill="#fff" stroke="#d4d4d8"/><text x="88" y="713" fill="#71717a" font-size="14">1</text><text x="116" y="713" fill="#27272a">Warm up 5 min</text>
    <rect x="64" y="742" width="592" height="48" rx="14" fill="#f4f4f5" opacity=".72"/><circle cx="91" cy="766" r="12" fill="#fff" stroke="#d4d4d8"/><text x="87" y="773" fill="#71717a" font-size="14">2</text><text x="116" y="773" fill="#27272a">Squat 4 × 5</text>
    <rect x="64" y="802" width="592" height="48" rx="14" fill="#f4f4f5" opacity=".72"/><circle cx="91" cy="826" r="12" fill="#fff" stroke="#d4d4d8"/><text x="87" y="833" fill="#71717a" font-size="14">3</text><text x="116" y="833" fill="#27272a">Bench press 4 × 5</text>
  </g>

  <rect x="34" y="896" width="314" height="178" rx="24" fill="#fff" stroke="#e4e4e7"/>
  <text x="64" y="948" fill="#71717a" font-family="Instrument Sans, Arial, sans-serif" font-size="18" font-weight="700">Water</text>
  <g fill="#bae6fd">
    <rect x="64" y="982" width="48" height="38" rx="11"/><rect x="124" y="982" width="48" height="38" rx="11"/><rect x="184" y="982" width="48" height="38" rx="11"/><rect x="244" y="982" width="48" height="38" rx="11"/>
  </g>
  <text x="64" y="1046" fill="#a1a1aa" font-family="Instrument Sans, Arial, sans-serif" font-size="17">2.0L / 2.5L</text>

  <rect x="372" y="896" width="314" height="178" rx="24" fill="#fff" stroke="#e4e4e7"/>
  <text x="402" y="948" fill="#71717a" font-family="Instrument Sans, Arial, sans-serif" font-size="18" font-weight="700">Streak</text>
  <text x="402" y="1015" fill="#f97316" font-family="Instrument Sans, Arial, sans-serif" font-size="56" font-weight="800" letter-spacing="-2">4</text>
  <text x="457" y="1010" fill="#a1a1aa" font-family="Instrument Sans, Arial, sans-serif" font-size="19">days</text>
  <g fill="#fb923c"><circle cx="535" cy="990" r="12"/><circle cx="573" cy="990" r="12"/><circle cx="611" cy="990" r="12"/><circle cx="649" cy="990" r="12"/></g>

  <rect x="112" y="1286" width="496" height="78" rx="39" fill="#fff" stroke="#e4e4e7"/>
  <rect x="136" y="1306" width="132" height="38" rx="19" fill="#f4f4f5"/>
  <text x="178" y="1331" fill="#18181b" font-family="Instrument Sans, Arial, sans-serif" font-size="17" font-weight="700">Home</text>
  <text x="320" y="1331" fill="#71717a" font-family="Instrument Sans, Arial, sans-serif" font-size="17" font-weight="600">Foods</text>
  <text x="452" y="1331" fill="#71717a" font-family="Instrument Sans, Arial, sans-serif" font-size="17" font-weight="600">Workouts</text>
</svg>
